<svg width="75" height="42" viewBox="0 0 75 42" fill="none" xmlns="http://www.w3.org/2000/svg">
<g id="cisco-2-1-2">
<g id="Group">
<path id="Vector" d="M24.7292 37.4411H21.7202V25.5171H24.7292V37.4411Z" fill="#6A7A99"/>
<g id="Group_2">
<g id="Group_3">
<path id="Vector_2" d="M48.9912 28.9341C48.2144 28.5126 47.3441 28.293 46.4603 28.2959C46.0309 28.2723 45.6013 28.3377 45.1983 28.4878C44.7953 28.6378 44.4276 28.8693 44.1183 29.168C43.8089 29.4666 43.5646 29.8261 43.4006 30.2236C43.2366 30.6211 43.1565 31.0481 43.1652 31.478C43.1562 31.908 43.2361 32.3352 43.3999 32.7329C43.5638 33.1306 43.808 33.4902 44.1173 33.7891C44.4267 34.0879 44.7945 34.3197 45.1977 34.4697C45.6009 34.6198 46.0308 34.685 46.4603 34.6611C47.3434 34.6631 48.2131 34.4453 48.9912 34.0278V37.228C48.1024 37.5005 47.1789 37.6431 46.2493 37.6518C45.4198 37.6902 44.5912 37.5581 43.8148 37.2637C43.0384 36.9692 42.3307 36.5187 41.7353 35.9399C41.1397 35.3613 40.6691 34.667 40.3524 33.8994C40.0358 33.1318 39.8799 32.3073 39.8943 31.477C39.8807 30.6472 40.0372 29.8232 40.3542 29.0561C40.6712 28.2891 41.1419 27.5953 41.7373 27.0171C42.3327 26.439 43.0403 25.9891 43.8162 25.6948C44.5922 25.4006 45.4203 25.2682 46.2493 25.3061C47.1798 25.3087 48.1044 25.453 48.9912 25.7349V28.9341ZM17.5843 28.9341C16.8089 28.5118 15.9392 28.2924 15.0562 28.2969C14.6265 28.2725 14.1964 28.3376 13.7929 28.4873C13.3893 28.637 13.0211 28.8683 12.7113 29.167C12.4012 29.4657 12.1564 29.8253 11.992 30.2231C11.8277 30.621 11.7474 31.0486 11.7563 31.479C11.7473 31.9095 11.8275 32.3373 11.9917 32.7353C12.1558 33.1334 12.4005 33.493 12.7103 33.792C13.0203 34.0908 13.3887 34.3224 13.7924 34.4722C14.1961 34.6219 14.6264 34.6866 15.0562 34.6621C15.9385 34.6651 16.8075 34.4472 17.5843 34.0288V37.229C16.6947 37.5029 15.77 37.6455 14.8393 37.6528C14.0101 37.6912 13.1818 37.5591 12.4057 37.2646C11.6296 36.9702 10.9223 36.5197 10.3273 35.9409C9.73234 35.362 9.26233 34.6675 8.94638 33.8999C8.63042 33.1323 8.47518 32.308 8.49026 31.478C8.47651 30.6486 8.63274 29.8253 8.94937 29.0586C9.26599 28.2919 9.7363 27.598 10.3313 27.02C10.9262 26.442 11.6332 25.9922 12.4087 25.6977C13.1841 25.4033 14.0116 25.2706 14.8402 25.3081C15.7714 25.3092 16.6968 25.453 17.5843 25.7349V28.9341ZM58.4572 28.3418C58.0454 28.3379 57.6369 28.4166 57.2559 28.5732C56.875 28.7299 56.5293 28.9614 56.2393 29.2539C55.9493 29.5463 55.7209 29.8937 55.5675 30.2759C55.4141 30.658 55.3389 31.0673 55.3463 31.479C55.3385 31.891 55.4135 32.3001 55.5667 32.6826C55.7199 33.0651 55.9482 33.4133 56.2382 33.706C56.5283 33.9988 56.8741 34.2304 57.2553 34.3872C57.6364 34.544 58.0451 34.623 58.4572 34.6191C58.8694 34.6229 59.2781 34.544 59.6592 34.3872C60.0403 34.2304 60.3862 33.9988 60.6763 33.706C60.9665 33.4134 61.1951 33.0656 61.3487 32.6831C61.5022 32.3006 61.5776 31.8911 61.5703 31.479C61.5766 31.0668 61.5002 30.6575 61.3456 30.2754C61.191 29.8932 60.9614 29.5458 60.6703 29.2539C60.3801 28.9615 60.0345 28.7304 59.6535 28.5737C59.2726 28.4171 58.8642 28.338 58.4523 28.3418H58.4572ZM64.7523 31.478C64.7599 32.3016 64.6011 33.1185 64.2857 33.8794C63.9702 34.6402 63.5045 35.3296 62.9163 35.9062C62.3281 36.4829 61.6296 36.935 60.8625 37.2353C60.0955 37.5357 59.2757 37.6778 58.4523 37.6538C57.629 37.6779 56.8092 37.536 56.0421 37.2358C55.2751 36.9356 54.5765 36.4837 53.9882 35.9072C53.3999 35.3305 52.934 34.6409 52.6186 33.8799C52.3031 33.1188 52.1445 32.3018 52.1522 31.478C52.1452 30.6546 52.3043 29.8381 52.6201 29.0776C52.936 28.3171 53.402 27.6284 53.9903 27.0522C54.5785 26.476 55.2769 26.0241 56.0438 25.7241C56.8106 25.4241 57.6302 25.282 58.4533 25.3061C59.2763 25.2824 60.0956 25.4249 60.8622 25.7251C61.6289 26.0253 62.3271 26.477 62.9152 27.0532C63.5033 27.6294 63.9691 28.3178 64.2849 29.0781C64.6007 29.8384 64.76 30.6548 64.7533 31.478H64.7523ZM36.1353 28.228C35.3679 28.0166 34.5787 27.895 33.7833 27.8652C32.5773 27.8652 31.9223 28.2648 31.9223 28.8418C31.9223 29.5688 32.8063 29.822 33.3013 29.978L34.1313 30.2422C34.9195 30.4088 35.6288 30.8361 36.1446 31.4551C36.6603 32.0741 36.9526 32.8484 36.9743 33.6538C36.9743 36.6538 34.3403 37.6538 32.0373 37.6538C30.9473 37.6437 29.8605 37.5349 28.7902 37.3281V34.582C29.7144 34.8508 30.6692 34.9998 31.6313 35.0259C33.1313 35.0259 33.8162 34.5881 33.8162 33.9131C33.8162 33.3131 33.2163 32.9601 32.4743 32.7261C32.2933 32.6651 32.0182 32.5801 31.8322 32.5181C30.1562 31.9881 28.7592 31.0028 28.7592 29.0298C28.7592 26.7998 30.4293 25.3022 33.2023 25.3022C34.1913 25.3156 35.1754 25.4427 36.1353 25.6811V28.2261V28.228Z" fill="#6A7A99"/>
<path id="Vector_3" d="M5.29803 12.7031C5.29698 12.3078 5.13901 11.9289 4.85889 11.6499C4.57876 11.3709 4.19937 11.2148 3.80402 11.2153C3.40891 11.2151 3.02985 11.3712 2.74982 11.6499C2.46978 11.9286 2.31165 12.307 2.31006 12.7021V15.833C2.32097 16.2225 2.48294 16.5926 2.76178 16.8647C3.04062 17.1369 3.4144 17.2896 3.80402 17.291C4.19409 17.2911 4.56873 17.1387 4.8479 16.8662C5.12707 16.5938 5.28864 16.223 5.29803 15.833V12.7031ZM13.5031 8.59522C13.5031 8.19898 13.3456 7.81875 13.0654 7.53857C12.7853 7.2584 12.4053 7.10107 12.009 7.10107C11.6128 7.10107 11.2328 7.2584 10.9526 7.53857C10.6725 7.81875 10.515 8.19898 10.515 8.59522V15.833C10.515 16.2292 10.6725 16.6095 10.9526 16.8896C11.2328 17.1698 11.6128 17.3271 12.009 17.3271C12.4053 17.3271 12.7853 17.1698 13.0654 16.8896C13.3456 16.6095 13.5031 16.2292 13.5031 15.833V8.59424V8.59522ZM21.709 2.97314C21.708 2.57787 21.5502 2.19905 21.2703 1.91992C20.9904 1.64079 20.6113 1.48437 20.216 1.48438C19.8204 1.48411 19.4408 1.64055 19.1607 1.91992C18.8806 2.19929 18.7228 2.5785 18.722 2.97412V18.8071C18.7317 19.1969 18.8933 19.5676 19.1725 19.8398C19.4516 20.1121 19.8261 20.2643 20.216 20.2642C20.6059 20.2643 20.9804 20.1121 21.2596 19.8398C21.5387 19.5676 21.7004 19.1969 21.71 18.8071L21.709 2.97314ZM29.9141 8.59522C29.9141 8.19898 29.7566 7.81875 29.4764 7.53857C29.1963 7.2584 28.8163 7.10107 28.42 7.10107C28.0238 7.10107 27.6438 7.2584 27.3636 7.53857C27.0834 7.81875 26.926 8.19898 26.926 8.59522V15.833C26.926 16.2292 27.0834 16.6095 27.3636 16.8896C27.6438 17.1698 28.0238 17.3271 28.42 17.3271C28.8163 17.3271 29.1963 17.1698 29.4764 16.8896C29.7566 16.6095 29.9141 16.2292 29.9141 15.833V8.59424V8.59522ZM38.114 12.7031C38.1143 12.3089 37.958 11.9309 37.6796 11.6519C37.4011 11.3728 37.0232 11.2159 36.629 11.2153C36.2338 11.2145 35.8544 11.3706 35.5742 11.6494C35.2941 11.9283 35.1361 12.3069 35.135 12.7021V15.833C35.135 16.2279 35.2919 16.607 35.5712 16.8862C35.8504 17.1655 36.2291 17.3223 36.624 17.3223C37.0181 17.3209 37.3955 17.1634 37.6737 16.8843C37.9519 16.6052 38.108 16.2271 38.108 15.833L38.114 12.7031ZM46.3231 8.59522C46.3134 8.20666 46.1523 7.83737 45.8741 7.56592C45.5959 7.29447 45.2227 7.14223 44.834 7.14209C44.4454 7.14223 44.0721 7.29447 43.7939 7.56592C43.5158 7.83737 43.3547 8.20666 43.345 8.59522V15.833C43.345 16.2279 43.5019 16.607 43.7811 16.8862C44.0604 17.1655 44.4391 17.3223 44.834 17.3223C45.229 17.3223 45.6077 17.1655 45.8869 16.8862C46.1661 16.607 46.3231 16.2279 46.3231 15.833V8.59424V8.59522ZM54.5341 2.97314C54.5338 2.57841 54.3767 2.19992 54.0975 1.9209C53.8183 1.64187 53.4398 1.48535 53.045 1.48535C52.6503 1.48535 52.2717 1.64187 51.9925 1.9209C51.7133 2.19992 51.5563 2.57841 51.556 2.97314V18.8071C51.5442 19.0759 51.6054 19.3428 51.733 19.5796C51.8607 19.8164 52.05 20.0145 52.281 20.1523C52.5121 20.29 52.7761 20.3623 53.045 20.3623C53.314 20.3623 53.5779 20.29 53.809 20.1523C54.0402 20.0144 54.2296 19.8161 54.3573 19.5791C54.485 19.3421 54.5461 19.0751 54.5341 18.8062V2.97314ZM62.743 8.59522C62.7423 8.39802 62.7028 8.20288 62.6266 8.021C62.5504 7.83911 62.4391 7.67398 62.299 7.53516C62.1587 7.3968 61.9926 7.2875 61.81 7.21338C61.6274 7.13926 61.4321 7.10162 61.235 7.10303C60.84 7.10329 60.4613 7.26064 60.1821 7.54004C59.9029 7.81944 59.746 8.19826 59.746 8.59326V15.832C59.7455 16.028 59.7837 16.2221 59.8583 16.4033C59.933 16.5845 60.0426 16.7494 60.181 16.8882C60.4604 17.1681 60.8395 17.3256 61.235 17.3262C61.4324 17.3279 61.6281 17.2906 61.8109 17.2163C61.9936 17.142 62.1599 17.032 62.3 16.8931C62.4403 16.7543 62.5517 16.5893 62.6277 16.4072C62.7038 16.2251 62.743 16.0294 62.743 15.832V8.59326V8.59522ZM70.937 12.7031C70.937 12.3077 70.7799 11.9285 70.5003 11.6489C70.2207 11.3693 69.8415 11.2119 69.446 11.2119C69.0506 11.2119 68.6713 11.3693 68.3917 11.6489C68.1121 11.9285 67.955 12.3077 67.955 12.7031V15.833C67.9546 16.0291 67.9929 16.2235 68.0676 16.4048C68.1424 16.5861 68.2521 16.7508 68.3906 16.8896C68.5291 17.0285 68.6936 17.1386 68.8747 17.2139C69.0558 17.2891 69.2499 17.328 69.446 17.3281C69.642 17.3279 69.8359 17.2891 70.0168 17.2139C70.1978 17.1386 70.3621 17.0284 70.5004 16.8896C70.6388 16.7509 70.7485 16.5864 70.8232 16.4053C70.898 16.2242 70.9363 16.0299 70.936 15.834V12.7041L70.937 12.7031Z" fill="#6A7A99"/>
<path id="Vector_4" d="M69.2131 35.8711V36.0581H68.6812V37.4414H68.4622V36.0591H67.9282V35.8711H69.2131ZM69.3242 35.8711H69.6661L70.1361 37.1592H70.1442L70.5991 35.8721H70.9352V37.4414H70.7112V36.1543H70.7031L70.2272 37.4414H70.0201L69.5552 36.1543H69.5452V37.4414H69.3262L69.3242 35.8711Z" fill="#6A7A99"/>
</g>
</g>
</g>
</g>
</svg>
