<svg width="122" height="24" viewBox="0 0 122 24" fill="none" xmlns="http://www.w3.org/2000/svg">
<g id="dropcam" clip-path="url(#clip0_0_1598)">
<g id="Group">
<path id="Vector" fill-rule="evenodd" clip-rule="evenodd" d="M4.07418 2.23493C4.98244 1.44576 6.03794 0.844175 7.1798 0.464868C8.32167 0.0855613 9.52733 -0.0639673 10.7273 0.0249028C11.9272 0.113773 13.0977 0.439284 14.1712 0.982669C15.2447 1.52605 16.2001 2.27656 16.9822 3.19093C18.664 4.89166 19.6463 7.16163 19.7348 9.55185C19.8233 11.9421 19.0116 14.2785 17.4602 16.0989L10.2892 23.2699C8.85518 22.3139 6.46518 20.4019 7.42118 18.4889C9.33318 16.0989 11.7212 14.1889 13.6362 11.7959C15.0702 9.88393 14.1142 6.05893 11.2462 5.58093C10.6026 5.35597 9.91204 5.30002 9.24064 5.41843C8.56924 5.53684 7.93948 5.82565 7.41169 6.2572C6.8839 6.68875 6.47574 7.24858 6.22632 7.88308C5.97689 8.51758 5.89455 9.20549 5.98718 9.88093C5.98718 12.2709 7.89918 13.7049 9.33318 15.1399C7.89918 16.5739 5.98718 17.5299 5.98718 19.4399C4.55318 17.5279 2.16318 16.0939 1.20618 13.7029C0.332153 11.7461 0.139723 9.55272 0.659677 7.47363C1.17963 5.39454 2.38192 3.54993 4.07418 2.23493Z" fill="#6A7A99"/>
<g id="Group_2">
<path id="Vector_2" fill-rule="evenodd" clip-rule="evenodd" d="M34.6701 2.23512C35.1481 0.801117 36.5821 1.27912 37.5381 1.27912V18.9621H34.6701V17.5321C33.5191 18.4601 32.0851 18.9662 30.6066 18.9662C29.1281 18.9662 27.6941 18.4601 26.5431 17.5321C25.2191 16.3233 24.4261 14.6405 24.3366 12.85C24.2471 11.0594 24.8683 9.30597 26.0651 7.97112C27.1412 6.79981 28.6051 6.0577 30.186 5.88196C31.7669 5.70622 33.3579 6.10874 34.6651 7.01512L34.6701 2.23512ZM30.3701 8.45012C27.9801 8.92812 26.0701 12.2741 27.9801 14.6651C28.3372 15.1861 28.825 15.6039 29.3947 15.8766C29.9644 16.1494 30.5957 16.2675 31.2255 16.2191C31.8552 16.1706 32.4611 15.9574 32.9824 15.6007C33.5036 15.2441 33.9218 14.7565 34.1951 14.1871C35.6261 11.7961 33.2351 8.44912 30.3671 8.44912L30.3701 8.45012Z" fill="#6A7A99"/>
</g>
<path id="Vector_3" fill-rule="evenodd" clip-rule="evenodd" d="M39.9282 6.05883H42.7962V7.01483C43.7522 5.58083 45.6642 5.58083 47.5772 6.05883C47.0992 7.01483 46.6212 7.49283 46.6212 8.44883C44.7092 7.97083 42.7972 8.92683 42.7972 10.3608V17.5318C42.3182 18.9708 40.8842 18.9708 39.9282 18.9708V6.05883Z" fill="#6A7A99"/>
<g id="Group_3">
<path id="Vector_4" fill-rule="evenodd" clip-rule="evenodd" d="M51.8793 6.06009C56.6603 4.14809 61.4403 8.92809 60.4793 13.7091C59.5183 18.4901 52.8303 20.8801 49.4793 17.5331C45.6553 14.1871 47.0893 7.01609 51.8693 6.06009H51.8793ZM53.3133 8.45009C52.5106 8.66424 51.7785 9.08635 51.1911 9.67383C50.6036 10.2613 50.1815 10.9933 49.9673 11.7961C49.8692 12.3415 49.8963 12.9021 50.0465 13.4355C50.1966 13.969 50.466 14.4613 50.8343 14.8754C51.2026 15.2895 51.6601 15.6146 52.1723 15.826C52.6846 16.0375 53.2382 16.1298 53.7913 16.0961C55.7033 16.0961 57.6153 14.6621 57.6153 12.7501C57.6153 10.3621 55.2263 7.97209 53.3153 8.45009H53.3133Z" fill="#6A7A99"/>
</g>
<g id="Group_4">
<path id="Vector_5" fill-rule="evenodd" clip-rule="evenodd" d="M62.397 6.05879H65.265V7.01479C66.5721 6.10841 68.1632 5.70589 69.7441 5.88163C71.325 6.05737 72.7888 6.79948 73.865 7.97078C74.456 8.58506 74.9147 9.31401 75.2128 10.1126C75.5109 10.9112 75.6421 11.7624 75.5982 12.6136C75.5544 13.4649 75.3364 14.2982 74.9578 15.0619C74.5792 15.8256 74.048 16.5035 73.397 17.0538C71.485 19.4438 67.66 19.4438 65.27 18.0098V22.3098C64.792 23.7438 63.358 23.7438 62.402 23.7438V6.05879H62.397ZM68.612 8.44879C65.744 8.92679 64.312 12.2728 65.744 14.1858C67.178 16.5758 71.003 16.5758 71.959 14.1858C73.87 11.7948 71.48 8.44879 68.612 8.44879Z" fill="#6A7A99"/>
</g>
<path id="Vector_6" fill-rule="evenodd" clip-rule="evenodd" d="M80.5633 6.53782C81.7732 5.85935 83.1686 5.58612 84.545 5.75815C85.9214 5.93018 87.2066 6.53844 88.2123 7.49382C87.7343 7.97182 87.2563 8.92782 86.3003 9.40582C85.8547 9.04481 85.3313 8.79233 84.7714 8.66831C84.2114 8.54429 83.6303 8.55212 83.074 8.69119C82.5176 8.83026 82.0012 9.09676 81.5654 9.46965C81.1297 9.84254 80.7867 10.3116 80.5633 10.8398C80.3555 11.4059 80.2811 12.0122 80.3457 12.6118C80.4104 13.2113 80.6124 13.7878 80.9361 14.2966C81.2598 14.8053 81.6964 15.2326 82.2121 15.5452C82.7278 15.8577 83.3085 16.0472 83.9093 16.0988C84.8653 16.0988 85.8213 15.6208 86.7773 15.6208C87.6312 15.9968 88.3133 16.6789 88.6893 17.5328C85.3433 20.4008 79.6063 19.4448 78.1723 15.1428C76.2603 12.2738 77.6943 8.44782 80.5633 6.53782Z" fill="#6A7A99"/>
<g id="Group_5">
<path id="Vector_7" fill-rule="evenodd" clip-rule="evenodd" d="M88.6902 14.6641C87.2582 10.3621 90.6022 5.58105 94.9052 5.58105C96.6263 5.65618 98.2715 6.3111 99.5733 7.4394C100.875 8.5677 101.757 10.1031 102.076 11.7961V18.9671C100.642 18.9671 99.6862 18.9671 98.7302 18.0111C95.3842 20.4011 90.1302 18.4891 88.6912 14.6651L88.6902 14.6641ZM94.9052 8.44905C94.2468 8.57292 93.6277 8.85246 93.0993 9.26436C92.571 9.67626 92.1489 10.2086 91.8682 10.8168C91.5875 11.4251 91.4564 12.0917 91.4858 12.761C91.5152 13.4302 91.7043 14.0827 92.0372 14.6641C93.9492 17.0541 97.7742 16.5761 98.7302 14.1861C98.975 13.5557 99.0645 12.8756 98.9911 12.2034C98.9176 11.5311 98.6835 10.8864 98.3083 10.3237C97.9332 9.76105 97.4281 9.29696 96.8358 8.97067C96.2434 8.64437 95.5813 8.46546 94.9052 8.44905Z" fill="#6A7A99"/>
</g>
<path id="Vector_8" fill-rule="evenodd" clip-rule="evenodd" d="M103.988 6.06009H106.856V7.01609C108.29 5.10409 111.637 5.58209 113.549 7.49409C115.939 4.62609 120.72 5.58209 121.676 8.92809C122.154 11.7961 121.676 15.1431 121.676 18.0111C121.676 18.9671 120.242 18.9671 118.808 18.9671C118.808 16.0991 119.286 13.2301 118.808 10.3671C118.715 9.86519 118.449 9.41183 118.056 9.08556C117.663 8.75929 117.169 8.58068 116.658 8.58068C116.148 8.58068 115.653 8.75929 115.261 9.08556C114.868 9.41183 114.602 9.86519 114.508 10.3671V18.9671H111.64C111.72 15.9316 111.56 12.8945 111.162 9.88409C110.684 7.97209 107.338 8.45009 107.338 10.3621C106.941 13.2106 106.781 16.0871 106.86 18.9621H103.988V6.06009Z" fill="#6A7A99"/>
</g>
</g>
<defs>
<clipPath id="clip0_0_1598">
<rect width="121.516" height="23.743" fill="white" transform="translate(0.373047)"/>
</clipPath>
</defs>
</svg>
