<svg width="34" height="34" viewBox="0 0 34 34" fill="none" xmlns="http://www.w3.org/2000/svg">
<g id="tech 1" clip-path="url(#clip0_0_576)">
<path id="Vector" d="M17.0002 17C16.9166 17 16.8344 16.9858 16.7551 16.9561L3.29675 11.9978C3.01766 11.8958 2.8335 11.6294 2.8335 11.3333C2.8335 11.0373 3.01908 10.7709 3.29816 10.6689L12.5065 7.28308C12.872 7.14992 13.2814 7.33692 13.416 7.70383C13.5506 8.07075 13.3622 8.47733 12.9952 8.61333L5.59316 11.3333L17.0002 15.5366L28.4072 11.3333L21.0051 8.61192C20.6382 8.47733 20.4497 8.06933 20.5843 7.70242C20.7189 7.3355 21.1269 7.1485 21.4938 7.28167L30.7022 10.6675C30.9812 10.7709 31.1668 11.0373 31.1668 11.3333C31.1668 11.6294 30.9827 11.8958 30.7036 11.9978L17.2452 16.9561C17.1659 16.9858 17.0837 17 17.0002 17Z" fill="#6A7A99"/>
<path id="Vector_2" d="M16.9999 34C16.9163 34 16.8342 33.9859 16.7562 33.9561L9.23375 31.1936C8.86683 31.059 8.67841 30.6525 8.813 30.2841C8.94758 29.9172 9.35558 29.7288 9.7225 29.8634L16.9999 32.5366L24.2787 29.8634C24.6457 29.7274 25.0522 29.9172 25.1882 30.2841C25.3228 30.651 25.1344 31.0576 24.7675 31.1936L17.245 33.9561C17.1657 33.9859 17.0835 34 16.9999 34Z" fill="#6A7A99"/>
<path id="Vector_3" d="M3.54183 25.16C3.15083 25.16 2.8335 24.8427 2.8335 24.4517V11.3333C2.8335 10.9423 3.15083 10.625 3.54183 10.625C3.93283 10.625 4.25016 10.9423 4.25016 11.3333V24.4517C4.25016 24.8427 3.93283 25.16 3.54183 25.16Z" fill="#6A7A99"/>
<path id="Vector_4" d="M30.4583 25.16C30.0673 25.16 29.75 24.8427 29.75 24.4517V11.3333C29.75 10.9423 30.0673 10.625 30.4583 10.625C30.8493 10.625 31.1667 10.9423 31.1667 11.3333V24.4517C31.1667 24.8427 30.8493 25.16 30.4583 25.16Z" fill="#6A7A99"/>
<path id="Vector_5" d="M16.9998 11.3333C16.6088 11.3333 16.2915 11.016 16.2915 10.625V4.95833C16.2915 4.56733 16.6088 4.25 16.9998 4.25C17.3908 4.25 17.7082 4.56733 17.7082 4.95833V10.625C17.7082 11.016 17.3908 11.3333 16.9998 11.3333Z" fill="#6A7A99"/>
<path id="Vector_6" d="M29.6649 30.3732C29.4835 30.3732 29.3022 30.3038 29.1634 30.1664L25.7067 26.7097C25.4304 26.4335 25.4304 25.9844 25.7067 25.7082C25.983 25.4319 26.432 25.4319 26.7083 25.7082L30.165 29.1648C30.4412 29.4411 30.4412 29.8902 30.165 30.1664C30.0275 30.3038 29.8462 30.3732 29.6649 30.3732Z" fill="#6A7A99"/>
<path id="Vector_7" d="M4.33515 30.3732C4.15382 30.3732 3.97249 30.3038 3.83365 30.1664C3.5574 29.8902 3.5574 29.4411 3.83365 29.1648L7.29032 25.7082C7.56657 25.4319 8.01565 25.4319 8.2919 25.7082C8.56815 25.9844 8.56815 26.4335 8.2919 26.7097L4.83524 30.1664C4.69782 30.3038 4.51649 30.3732 4.33515 30.3732Z" fill="#6A7A99"/>
<path id="Vector_8" d="M16.9998 34.0002C16.6088 34.0002 16.2915 33.6828 16.2915 33.2918V16.2918C16.2915 15.9008 16.6088 15.5835 16.9998 15.5835C17.3908 15.5835 17.7082 15.9008 17.7082 16.2918V33.2918C17.7082 33.6828 17.3908 34.0002 16.9998 34.0002Z" fill="#6A7A99"/>
<path id="Vector_9" d="M16.9998 5.66667C15.4373 5.66667 14.1665 4.39592 14.1665 2.83333C14.1665 1.27075 15.4373 0 16.9998 0C18.5624 0 19.8332 1.27075 19.8332 2.83333C19.8332 4.39592 18.5624 5.66667 16.9998 5.66667ZM16.9998 1.41667C16.2193 1.41667 15.5832 2.05275 15.5832 2.83333C15.5832 3.61392 16.2193 4.25 16.9998 4.25C17.7804 4.25 18.4165 3.61392 18.4165 2.83333C18.4165 2.05275 17.7804 1.41667 16.9998 1.41667Z" fill="#6A7A99"/>
<path id="Vector_10" d="M31.1668 34.0002C29.6042 34.0002 28.3335 32.7294 28.3335 31.1668C28.3335 29.6043 29.6042 28.3335 31.1668 28.3335C32.7294 28.3335 34.0002 29.6043 34.0002 31.1668C34.0002 32.7294 32.7294 34.0002 31.1668 34.0002ZM31.1668 29.7502C30.3862 29.7502 29.7502 30.3863 29.7502 31.1668C29.7502 31.9474 30.3862 32.5835 31.1668 32.5835C31.9474 32.5835 32.5835 31.9474 32.5835 31.1668C32.5835 30.3863 31.9474 29.7502 31.1668 29.7502Z" fill="#6A7A99"/>
<path id="Vector_11" d="M2.83333 34.0002C1.27075 34.0002 0 32.7294 0 31.1668C0 29.6043 1.27075 28.3335 2.83333 28.3335C4.39592 28.3335 5.66667 29.6043 5.66667 31.1668C5.66667 32.7294 4.39592 34.0002 2.83333 34.0002ZM2.83333 29.7502C2.05275 29.7502 1.41667 30.3863 1.41667 31.1668C1.41667 31.9474 2.05275 32.5835 2.83333 32.5835C3.61392 32.5835 4.25 31.9474 4.25 31.1668C4.25 30.3863 3.61392 29.7502 2.83333 29.7502Z" fill="#6A7A99"/>
</g>
<defs>
<clipPath id="clip0_0_576">
<rect width="34" height="34" fill="white"/>
</clipPath>
</defs>
</svg>
