<svg width="34" height="34" viewBox="0 0 34 34" fill="none" xmlns="http://www.w3.org/2000/svg">
<g id="web-programming 1">
<path id="Vector" d="M13.4147 23.8268C13.2863 23.8268 13.1569 23.7826 13.0513 23.6927L9.41902 20.5998C9.29372 20.493 9.22168 20.337 9.22168 20.1723C9.22168 20.0078 9.29404 19.8518 9.41902 19.745L13.0513 16.6521C13.2872 16.451 13.6415 16.4795 13.8426 16.7154C14.0433 16.9516 14.0152 17.3058 13.779 17.5066L10.6488 20.1723L13.779 22.8379C14.0152 23.039 14.0433 23.3933 13.8426 23.6291C13.7314 23.7598 13.5735 23.8268 13.4147 23.8268Z" fill="#6A7A99"/>
<path id="Vector_2" d="M20.5855 23.8268C20.4267 23.8268 20.2688 23.7598 20.158 23.6291C19.9569 23.3933 19.9854 23.039 20.2212 22.8379L23.3514 20.1723L20.2212 17.5066C19.9854 17.3058 19.9569 16.9516 20.158 16.7154C20.3587 16.4795 20.7133 16.451 20.9489 16.6521L24.5812 19.745C24.7065 19.8518 24.7785 20.0078 24.7785 20.1723C24.7785 20.337 24.7065 20.493 24.5812 20.5998L20.9489 23.6927C20.8433 23.7826 20.714 23.8268 20.5855 23.8268Z" fill="#6A7A99"/>
<path id="Vector_3" d="M15.7146 26.1464C15.676 26.1464 15.6372 26.1423 15.598 26.1342C15.2948 26.0703 15.1006 25.7724 15.1645 25.4692L17.4283 14.7211C17.4922 14.4179 17.7898 14.2237 18.0933 14.2876C18.3965 14.3515 18.5907 14.649 18.5268 14.9526L16.263 25.7006C16.2073 25.965 15.9742 26.1464 15.7146 26.1464Z" fill="white"/>
<path id="Vector_4" d="M30.2311 32.0023H3.76887C1.69085 32.0023 0 30.3118 0 28.2335V5.77375C0 3.69574 1.69085 2.00488 3.76887 2.00488H30.2311C32.3091 2.00488 34 3.69574 34 5.77375V28.2335C34 30.3118 32.3091 32.0023 30.2311 32.0023ZM3.76887 3.12752C2.30981 3.12752 1.12264 4.31469 1.12264 5.77375V28.2335C1.12264 29.6925 2.30981 30.8797 3.76887 30.8797H30.2311C31.6902 30.8797 32.8774 29.6925 32.8774 28.2335V5.77375C32.8774 4.31469 31.6902 3.12752 30.2311 3.12752H3.76887Z" fill="#6A7A99"/>
<path id="Vector_5" d="M33.4387 10.9932H0.561321C0.251216 10.9932 0 10.742 0 10.4319C0 10.1221 0.251216 9.87061 0.561321 9.87061H33.4387C33.7488 9.87061 34 10.1221 34 10.4319C34 10.742 33.7488 10.9932 33.4387 10.9932Z" fill="white"/>
<path id="Vector_6" d="M9.59082 8.30713C8.61164 8.30713 7.81445 7.50994 7.81445 6.53076C7.81445 5.55127 8.61164 4.75439 9.59082 4.75439C10.5703 4.75439 11.3672 5.55127 11.3672 6.53076C11.3672 7.50994 10.5703 8.30713 9.59082 8.30713ZM9.59082 5.87704C9.2306 5.87704 8.93709 6.17023 8.93709 6.53076C8.93709 6.8913 9.2306 7.18449 9.59082 7.18449C9.95136 7.18449 10.2445 6.8913 10.2445 6.53076C10.2445 6.17023 9.95136 5.87704 9.59082 5.87704Z" fill="#6A7A99"/>
<path id="Vector_7" d="M4.13281 8.29004C3.15332 8.29004 2.35645 7.49316 2.35645 6.51367C2.35645 5.53418 3.15332 4.7373 4.13281 4.7373C5.1123 4.7373 5.90918 5.53418 5.90918 6.51367C5.90918 7.49316 5.1123 8.29004 4.13281 8.29004ZM4.13281 5.85995C3.77259 5.85995 3.47909 6.15345 3.47909 6.51367C3.47909 6.87421 3.77259 7.1674 4.13281 7.1674C4.49335 7.1674 4.78654 6.87421 4.78654 6.51367C4.78654 6.15345 4.49335 5.85995 4.13281 5.85995Z" fill="#6A7A99"/>
<path id="Vector_8" d="M15.0485 8.32391C14.0693 8.32391 13.2725 7.52703 13.2725 6.54754C13.2725 5.56836 14.0693 4.77148 15.0485 4.77148C16.028 4.77148 16.8249 5.56836 16.8249 6.54754C16.8249 7.52703 16.028 8.32391 15.0485 8.32391ZM15.0485 5.89381C14.6883 5.89381 14.3951 6.187 14.3951 6.54754C14.3951 6.90807 14.6883 7.20126 15.0485 7.20126C15.4091 7.20126 15.7022 6.90807 15.7022 6.54754C15.7022 6.187 15.4091 5.89381 15.0485 5.89381Z" fill="#6A7A99"/>
</g>
</svg>
