<svg width="34" height="34" viewBox="0 0 34 34" fill="none" xmlns="http://www.w3.org/2000/svg">
<g id="announcement 2" clip-path="url(#clip0_0_474)">
<g id="Group">
<path id="Vector" d="M32.0078 2.39062H19.7227C18.6242 2.39062 17.7305 3.28432 17.7305 4.3828V11.7352L9.7488 13.9748H2.23363C1.002 13.9747 0 14.9767 0 16.2084V20.9172C0 22.1488 1.002 23.1508 2.23363 23.1508H3.27209L4.11465 29.6422C4.22242 30.4725 4.705 31.1238 5.43872 31.4294C6.21334 31.7526 7.14887 31.6362 7.81545 31.1264C8.4414 30.6479 8.7381 29.8934 8.62946 29.0563L7.863 23.1508H9.74873L26.4435 27.8349C26.6421 27.8909 26.8582 27.8507 27.024 27.7248C27.1897 27.5992 27.287 27.4034 27.287 27.1956V14.3437H32.0078C33.1063 14.3437 34 13.45 34 12.3515V4.3828C34 3.28432 33.1063 2.39062 32.0078 2.39062ZM1.32812 20.9171V16.2083C1.32812 15.709 1.73433 15.3028 2.23363 15.3028H9.17605V21.8226H2.23363C1.73433 21.8227 1.32812 21.4164 1.32812 20.9171ZM7.31236 29.2271C7.36031 29.5966 7.25824 29.8805 7.00889 30.0711C6.44437 30.4928 5.49928 30.277 5.43174 29.4713L4.61143 23.1507H6.52372L7.31236 29.2271ZM25.9588 26.3195L10.5042 21.9833V15.1422L17.867 13.0763C18.1575 13.8175 18.8798 14.3437 19.7226 14.3437H21.4398L22.5734 15.4773C22.8327 15.7366 23.2532 15.7366 23.5126 15.4773L24.6462 14.3437H25.9589V26.3195H25.9588ZM32.6719 12.3515C32.6719 12.7177 32.374 13.0156 32.0078 13.0156H24.3711C24.195 13.0156 24.0261 13.0856 23.9016 13.2101L23.043 14.0686L22.1844 13.2101C22.0599 13.0856 21.891 13.0156 21.7149 13.0156H19.7227C19.3566 13.0156 19.0587 12.7177 19.0587 12.3515V4.3828C19.0587 4.01664 19.3566 3.71874 19.7227 3.71874H32.0078C32.374 3.71874 32.6719 4.01664 32.6719 4.3828V12.3515Z" fill="#6A7A99"/>
<path id="Vector_2" d="M29.8498 5.04688H21.8811C21.0009 5.07955 21.0016 6.34266 21.8811 6.375H29.8498C30.73 6.34233 30.7293 5.07921 29.8498 5.04688Z" fill="#6A7A99"/>
<path id="Vector_3" d="M29.8498 7.70312H21.8811C21.0009 7.7358 21.0016 8.99891 21.8811 9.03125H29.8498C30.73 8.99858 30.7293 7.73546 29.8498 7.70312Z" fill="#6A7A99"/>
<path id="Vector_4" d="M25.8654 10.3594H21.8811C21.0009 10.392 21.0016 11.6552 21.8811 11.6875H25.8654C26.7456 11.6548 26.7449 10.3917 25.8654 10.3594Z" fill="#6A7A99"/>
</g>
</g>
<defs>
<clipPath id="clip0_0_474">
<rect width="34" height="34" fill="white"/>
</clipPath>
</defs>
</svg>
