<svg width="34" height="34" viewBox="0 0 34 34" fill="none" xmlns="http://www.w3.org/2000/svg">
<g id="digital-art 1" clip-path="url(#clip0_0_556)">
<path id="Vector" d="M17.0051 24.2861C16.8298 24.2861 16.6591 24.3572 16.5354 24.4807C16.4114 24.6042 16.3408 24.7756 16.3408 24.9502C16.3408 25.125 16.4114 25.2962 16.5354 25.4197C16.6591 25.5434 16.8298 25.6145 17.0051 25.6145C17.1797 25.6145 17.3509 25.5434 17.4747 25.4197C17.5981 25.2962 17.6692 25.125 17.6692 24.9502C17.6692 24.7756 17.5981 24.6042 17.4747 24.4807C17.3509 24.3572 17.1797 24.2861 17.0051 24.2861Z" fill="#6A7A99"/>
<path id="Vector_2" d="M28.8908 5.02929H15.4576L11.184 0.755434C10.1767 -0.251811 8.53812 -0.251811 7.53087 0.755434C6.52363 1.76268 6.52363 3.4013 7.53087 4.40855L8.15136 5.02903H5.11379C3.2827 5.02903 1.79297 6.51876 1.79297 8.34986V12.75C1.79297 13.1168 2.09024 13.4141 2.45729 13.4141C2.82408 13.4141 3.12135 13.1168 3.12135 12.75V8.35011C3.12135 7.2513 4.01524 6.35741 5.11379 6.35741H9.47974L14.6859 11.5638C14.6861 11.5641 14.6864 11.5641 14.6867 11.5643L17.719 14.5967C17.7585 14.6364 17.8028 14.6696 17.8503 14.6976C17.8129 14.9298 17.7927 15.1661 17.7927 15.4058C17.7927 16.5808 18.2505 17.6856 19.0814 18.5165C20.4759 19.9113 22.2051 20.5574 24.6694 20.5574C25.2789 20.5574 25.9334 20.518 26.639 20.4404C26.8927 20.4124 27.1082 20.2415 27.1931 20.0005C27.2776 19.7595 27.2167 19.4913 27.0361 19.3105C26.2084 18.483 26.3002 17.5951 26.4162 16.4711C26.5438 15.2343 26.7028 13.6953 25.3026 12.2951C24.2611 11.2536 22.823 10.8458 21.4699 11.0691C21.4427 11.0245 21.4105 10.9822 21.3721 10.9436L16.786 6.35741H28.8908C29.9896 6.35741 30.8835 7.2513 30.8835 8.35011V22.0277H3.12135V18.7276C3.12135 18.3608 2.82408 18.0633 2.45729 18.0633C2.09024 18.0633 1.79297 18.3608 1.79297 18.7276V24.5514C1.79297 26.3827 3.2827 27.8722 5.11379 27.8722H13.6841V30.0167C11.8828 30.0514 10.4278 31.5266 10.4278 33.3359C10.4278 33.7027 10.7254 34 11.0922 34H22.9174C23.2844 34 23.5817 33.7027 23.5817 33.3359C23.5817 31.5266 22.127 30.0514 20.3257 30.0167V27.8722H28.8908C30.7219 27.8722 32.2116 26.3827 32.2116 24.5514V8.35011C32.2116 6.51902 30.7219 5.02929 28.8908 5.02929ZM8.47016 1.69472C8.71477 1.4501 9.03591 1.32767 9.3573 1.32767C9.6787 1.32767 10.0001 1.4501 10.2447 1.69472L16.9268 8.37709L15.1523 10.1516L8.47016 3.46927C7.98093 2.98004 7.98093 2.18394 8.47016 1.69472ZM20.05 17.606C20.4785 16.745 21.328 16.1821 22.2943 16.1297C23.4157 16.069 24.4328 15.5497 25.1324 14.7194C25.2089 15.2286 25.1539 15.7622 25.0948 16.3347C25.0011 17.2433 24.8981 18.2413 25.3542 19.2117C22.9122 19.3274 21.2878 18.8262 20.05 17.606ZM24.3633 13.2346C24.3975 13.2686 24.4302 13.3031 24.4616 13.3373C24.0318 14.1926 23.1848 14.7513 22.2222 14.8034C21.0388 14.8678 19.9714 15.4426 19.2708 16.3549C19.173 16.0524 19.1211 15.7331 19.1211 15.406C19.1211 14.5855 19.4407 13.8146 20.0207 13.2346C20.6191 12.6359 21.4056 12.3366 22.1918 12.3366C22.9783 12.3366 23.7648 12.6359 24.3633 13.2346ZM19.0819 12.2945C19.0816 12.2948 19.0814 12.2951 19.0814 12.2951C19.0811 12.2953 19.0809 12.2956 19.0806 12.2958L18.1885 13.1879L16.0949 11.094L17.8695 9.31949L19.9631 11.4134L19.0819 12.2945ZM22.1394 32.6716H11.8701C12.144 31.8986 12.8828 31.3435 13.7487 31.3435H20.2609C21.1267 31.3435 21.8655 31.8986 22.1394 32.6716ZM18.9973 30.0019H15.0125V27.8722H18.9973V30.0019ZM28.8908 26.5441H5.11379C4.01524 26.5441 3.12135 25.6502 3.12135 24.5514V23.3561H30.8835V24.5514C30.8835 25.6502 29.9896 26.5441 28.8908 26.5441Z" fill="#6A7A99"/>
<path id="Vector_3" d="M2.45729 16.4028C2.63187 16.4028 2.80307 16.3318 2.9268 16.2083C3.05028 16.0848 3.12135 15.9133 3.12135 15.7388C3.12135 15.5642 3.05028 15.3927 2.9268 15.2693C2.80307 15.1458 2.63187 15.0747 2.45729 15.0747C2.28246 15.0747 2.11125 15.1458 1.98752 15.2693C1.86404 15.3927 1.79297 15.5642 1.79297 15.7388C1.79297 15.9133 1.86404 16.0848 1.98752 16.2083C2.11125 16.3318 2.28246 16.4028 2.45729 16.4028Z" fill="#6A7A99"/>
</g>
<defs>
<clipPath id="clip0_0_556">
<rect width="34" height="34" fill="white"/>
</clipPath>
</defs>
</svg>
