<svg width="34" height="34" viewBox="0 0 34 34" fill="none" xmlns="http://www.w3.org/2000/svg">
<g id="photo-camera (1) 1">
<g id="Group">
<g id="Group_2">
<path id="Vector" d="M29.0416 7.7915H24.7916C24.487 7.7915 24.2165 7.5974 24.1201 7.307L23.6725 5.964C23.1894 4.51475 21.8394 3.5415 20.3121 3.5415H13.6878C12.1606 3.5415 10.8105 4.51475 10.3289 5.96261L9.88125 7.307C9.7835 7.5974 9.51289 7.7915 9.20836 7.7915H4.95836C2.22414 7.7915 0 10.0157 0 12.7499V25.4999C0 28.234 2.22414 30.4582 4.95836 30.4582H29.0417C31.7759 30.4582 34 28.234 34 25.4999V12.7499C34 10.0157 31.7759 7.7915 29.0416 7.7915ZM32.5834 25.4999C32.5834 27.452 30.9939 29.0415 29.0417 29.0415H4.95836C3.00621 29.0415 1.41671 27.452 1.41671 25.4999V12.7499C1.41671 10.7977 3.00621 9.20822 4.95836 9.20822H9.20836C10.1235 9.20822 10.9339 8.62457 11.2242 7.75611L11.6734 6.41025C11.9624 5.54186 12.7727 4.95815 13.6879 4.95815H20.3122C21.2274 4.95815 22.0377 5.54179 22.3281 6.41165L22.7758 7.75604C23.0661 8.62444 23.8765 9.20815 24.7916 9.20815H29.0416C30.9938 9.20815 32.5833 10.7976 32.5833 12.7498V25.4999H32.5834Z" fill="#6A7A99"/>
</g>
</g>
<g id="Group_3">
<g id="Group_4">
<path id="Vector_2" d="M17 10.625C12.3122 10.625 8.5 14.4372 8.5 19.125C8.5 23.8127 12.3122 27.625 17 27.625C21.6877 27.625 25.5 23.8127 25.5 19.125C25.5 14.4372 21.6877 10.625 17 10.625ZM17 26.2084C13.0942 26.2084 9.91664 23.0308 9.91664 19.125C9.91664 15.2192 13.0942 12.0416 17 12.0416C20.9058 12.0416 24.0834 15.2192 24.0834 19.125C24.0834 23.0308 20.9058 26.2084 17 26.2084Z" fill="#6A7A99"/>
</g>
</g>
<g id="Group_5">
<g id="Group_6">
<path id="Vector_3" d="M17.0001 13.4585C13.875 13.4585 11.3335 16 11.3335 19.1251C11.3335 19.5161 11.6509 19.8335 12.0418 19.8335C12.4328 19.8335 12.7501 19.5161 12.7501 19.1251C12.7501 16.782 14.657 14.8751 17.0001 14.8751C17.3911 14.8751 17.7085 14.5578 17.7085 14.1668C17.7085 13.7758 17.3911 13.4585 17.0001 13.4585Z" fill="#6A7A99"/>
</g>
</g>
</g>
</svg>
