<svg width="34" height="34" viewBox="0 0 34 34" fill="none" xmlns="http://www.w3.org/2000/svg">
<g id="design 2" clip-path="url(#clip0_0_503)">
<g id="Group">
<path id="Vector" d="M33.3359 27.293H32.6719V11.3555C32.6719 9.89081 31.4803 8.69922 30.0156 8.69922H22.4154L21.9325 7.37109H22.6445C23.0112 7.37109 23.3086 7.07373 23.3086 6.70703V3.38672C23.3086 3.02002 23.0112 2.72266 22.6445 2.72266H21.3164V0.730469C21.3164 0.363773 21.019 0.0664062 20.6523 0.0664062H13.3477C12.9809 0.0664062 12.6836 0.363773 12.6836 0.730469V2.72266H11.3555C10.9887 2.72266 10.6914 3.02002 10.6914 3.38672V6.70703C10.6914 7.07373 10.9887 7.37109 11.3555 7.37109H12.0675L11.5846 8.69922H3.98438C2.51972 8.69922 1.32812 9.89081 1.32812 11.3555V27.293H0.664062C0.297301 27.293 0 27.5903 0 27.957V31.2773C0 32.742 1.19159 33.9336 2.65625 33.9336H31.3438C32.8084 33.9336 34 32.742 34 31.2773V27.957C34 27.5903 33.7026 27.293 33.3359 27.293ZM30.0156 10.0273C30.748 10.0273 31.3438 10.6231 31.3438 11.3555V27.293H30.0156V12.0195C30.0156 11.6528 29.7183 11.3555 29.3516 11.3555H23.3813L22.8984 10.0273H30.0156ZM14.0117 28.6211H19.9883V29.9492H14.0117V28.6211ZM5.3125 27.293V12.6836H10.1357L9.73529 13.7847C9.66052 13.9904 9.69186 14.2196 9.81903 14.3977L15.7096 22.6445H11.2413C10.9671 21.8716 10.229 21.3164 9.36328 21.3164C8.26479 21.3164 7.37109 22.2101 7.37109 23.3086C7.37109 24.4071 8.26479 25.3008 9.36328 25.3008C10.229 25.3008 10.9671 24.7456 11.2413 23.9727H22.7588C23.0329 24.7456 23.771 25.3008 24.6367 25.3008C25.7352 25.3008 26.6289 24.4071 26.6289 23.3086C26.6289 22.2101 25.7352 21.3164 24.6367 21.3164C23.771 21.3164 23.0329 21.8716 22.7588 22.6445H18.2905L24.181 14.3977C24.3082 14.2196 24.3396 13.9903 24.2647 13.7847L23.8643 12.6836H28.6875V27.293C26.3705 27.293 5.78418 27.293 5.3125 27.293ZM17 14.0117C16.6338 14.0117 16.3359 13.7138 16.3359 13.3477C16.3359 12.9815 16.6338 12.6836 17 12.6836C17.3662 12.6836 17.6641 12.9815 17.6641 13.3477C17.6641 13.7138 17.3662 14.0117 17 14.0117ZM10.0273 23.3086C10.0273 23.6748 9.72945 23.9727 9.36328 23.9727C8.99712 23.9727 8.69922 23.6748 8.69922 23.3086C8.69922 22.9424 8.99712 22.6445 9.36328 22.6445C9.72945 22.6445 10.0273 22.9424 10.0273 23.3086ZM23.9727 23.3086C23.9727 22.9424 24.2706 22.6445 24.6367 22.6445C25.0029 22.6445 25.3008 22.9424 25.3008 23.3086C25.3008 23.6748 25.0029 23.9727 24.6367 23.9727C24.2706 23.9727 23.9727 23.6748 23.9727 23.3086ZM14.0117 1.39453H19.9883V2.72266H14.0117V1.39453ZM12.0195 4.05078H21.9805V6.04297C21.2407 6.04297 13.4603 6.04297 12.0195 6.04297V4.05078ZM20.5193 7.37109L22.8971 13.9102L17.6641 21.2364V15.2256C18.437 14.9515 18.9922 14.2133 18.9922 13.3477C18.9922 12.2492 18.0985 11.3555 17 11.3555C15.9015 11.3555 15.0078 12.2492 15.0078 13.3477C15.0078 14.2133 15.563 14.9515 16.3359 15.2256V21.2364L11.1029 13.9102L13.4807 7.37109H20.5193ZM2.65625 11.3555C2.65625 10.6231 3.25205 10.0273 3.98438 10.0273H11.1017L10.6187 11.3555H4.64844C4.28168 11.3555 3.98438 11.6528 3.98438 12.0195V27.293H2.65625V11.3555ZM32.6719 31.2773C32.6719 32.0097 32.0761 32.6055 31.3438 32.6055H2.65625C1.92392 32.6055 1.32812 32.0097 1.32812 31.2773V28.6211H12.6836V30.6133C12.6836 30.98 12.9809 31.2773 13.3477 31.2773H20.6523C21.019 31.2773 21.3164 30.98 21.3164 30.6133V28.6211H32.6719V31.2773Z" fill="#6A7A99"/>
</g>
</g>
<defs>
<clipPath id="clip0_0_503">
<rect width="34" height="34" fill="white"/>
</clipPath>
</defs>
</svg>
