<svg width="34" height="34" viewBox="0 0 34 34" fill="none" xmlns="http://www.w3.org/2000/svg">
<g id="social-media 1" clip-path="url(#clip0_0_513)">
<g id="Group">
<path id="Vector" d="M3.1875 3.71875C3.4809 3.71875 3.71875 3.4809 3.71875 3.1875C3.71875 2.8941 3.4809 2.65625 3.1875 2.65625C2.8941 2.65625 2.65625 2.8941 2.65625 3.1875C2.65625 3.4809 2.8941 3.71875 3.1875 3.71875Z" fill="#6A7A99"/>
<path id="Vector_2" d="M6.90625 2.65625H13.2812V3.71875H6.90625V2.65625Z" fill="#6A7A99"/>
<path id="Vector_3" d="M11.6875 28.1562H8.5C7.62131 28.1562 6.90625 28.8713 6.90625 29.75C6.90625 30.6287 7.62131 31.3438 8.5 31.3438H11.6875C12.5662 31.3438 13.2812 30.6287 13.2812 29.75C13.2812 28.8713 12.5662 28.1562 11.6875 28.1562ZM11.6875 30.2812H8.5C8.20675 30.2812 7.96875 30.0432 7.96875 29.75C7.96875 29.4568 8.20675 29.2188 8.5 29.2188H11.6875C11.9808 29.2188 12.2188 29.4568 12.2188 29.75C12.2188 30.0432 11.9808 30.2812 11.6875 30.2812Z" fill="#6A7A99"/>
<path id="Vector_4" d="M31.875 2.65625H19.6026C19.3556 1.44553 18.2824 0.53125 17 0.53125H3.1875C1.72284 0.53125 0.53125 1.72284 0.53125 3.1875V30.8125C0.53125 32.2772 1.72284 33.4688 3.1875 33.4688H17C18.4647 33.4688 19.6562 32.2772 19.6562 30.8125V17.5312H31.875C32.7537 17.5312 33.4688 16.8162 33.4688 15.9375V4.25C33.4688 3.37131 32.7537 2.65625 31.875 2.65625ZM32.4062 4.25V6.90625H17.5312V4.25C17.5312 3.95728 17.7693 3.71875 18.0625 3.71875H31.875C32.1682 3.71875 32.4062 3.95728 32.4062 4.25ZM16.4688 15.9375V21.7812C16.4688 22.3672 15.9922 22.8438 15.4062 22.8438V7.96875C15.9922 7.96875 16.4688 8.44528 16.4688 9.03125V15.9375ZM3.1875 1.59375H17C17.6917 1.59375 18.2761 2.03947 18.496 2.65625H18.0625C17.1838 2.65625 16.4688 3.37131 16.4688 4.25V4.78072L1.59375 4.78125V3.1875C1.59375 2.30881 2.30881 1.59375 3.1875 1.59375ZM17 32.4062H3.1875C2.30881 32.4062 1.59375 31.6912 1.59375 30.8125V27.0938H18.5938V30.8125C18.5938 31.6912 17.8787 32.4062 17 32.4062ZM18.5938 26.0312H1.59375V5.84375L16.4688 5.84322V7.20162C16.1548 7.01887 15.7951 6.90625 15.4062 6.90625C14.8203 6.90625 14.3438 7.38278 14.3438 7.96875V8.75234C11.7311 10.6425 8.53772 11.6875 5.3125 11.6875C3.84784 11.6875 2.65625 12.8791 2.65625 14.3438V16.4688C2.65625 17.7512 3.57053 18.8243 4.78125 19.0713V23.9062C4.78125 24.4922 5.25778 24.9688 5.84375 24.9688H7.00506C7.50656 24.9688 7.94484 24.6123 8.04791 24.1113L8.38206 22.3125H9.12687C9.95297 22.3125 10.625 21.6405 10.625 20.8149C10.625 20.7161 10.6149 20.6173 10.5958 20.5206L10.4996 20.0403C11.8665 20.5291 13.1638 21.2064 14.3438 22.0596V22.8438C14.3438 23.4297 14.8203 23.9062 15.4062 23.9062C16.5782 23.9062 17.5312 22.9532 17.5312 21.7812V17.4335C17.6981 17.493 17.8755 17.5312 18.0625 17.5312H18.5938V26.0312ZM14.3438 20.7719C12.1189 19.3152 9.55081 18.411 6.90625 18.1502V12.6623C9.55081 12.401 12.1189 11.4973 14.3438 10.0406V20.7719ZM9.554 20.7294C9.55984 20.757 9.5625 20.7857 9.5625 20.8149C9.5625 21.055 9.36753 21.25 9.12741 21.25H8.58022L8.89525 19.5558C9.04612 19.592 9.19434 19.6366 9.34363 19.6775L9.554 20.7294ZM3.71875 15.9375V14.875H4.78125V13.8125H3.8165C4.03644 13.1957 4.62081 12.75 5.3125 12.75C5.48994 12.75 5.66631 12.7341 5.84375 12.7282V18.0843C5.66631 18.0784 5.48994 18.0625 5.3125 18.0625C4.62081 18.0625 4.03644 17.6168 3.8165 17H4.78125V15.9375H3.71875ZM5.84375 19.1468C6.51791 19.1707 7.18994 19.2297 7.854 19.3418L7.00506 23.9062H5.84375V19.1468ZM31.875 16.4688H18.0625C17.7693 16.4688 17.5312 16.2302 17.5312 15.9375V9.03125V7.96875H32.4062V15.9375C32.4062 16.2302 32.1682 16.4688 31.875 16.4688Z" fill="#6A7A99"/>
<path id="Vector_5" d="M18.5938 4.78125H19.6562V5.84375H18.5938V4.78125Z" fill="#6A7A99"/>
<path id="Vector_6" d="M22.8438 4.78125H23.9062V5.84375H22.8438V4.78125Z" fill="#6A7A99"/>
<path id="Vector_7" d="M20.7188 4.78125H21.7812V5.84375H20.7188V4.78125Z" fill="#6A7A99"/>
<path id="Vector_8" d="M27.0938 14.3438H26.0312V9.03125H22.8438V14.3438H21.7812V11.1562H18.5938V15.4062H30.2812V10.0938H27.0938V14.3438ZM20.7188 14.3438H19.6562V12.2188H20.7188V14.3438ZM23.9062 10.0938H24.9688V14.3438H23.9062V10.0938ZM28.1562 11.1562H29.2188V14.3438H28.1562V11.1562Z" fill="#6A7A99"/>
<path id="Vector_9" d="M22.8438 21.7812H32.4062V18.5938H22.8438V21.7812ZM23.9062 19.6562H31.3438V20.7188H23.9062V19.6562Z" fill="#6A7A99"/>
<path id="Vector_10" d="M22.8438 22.8438H24.9688V23.9062H22.8438V22.8438Z" fill="#6A7A99"/>
<path id="Vector_11" d="M26.0312 22.8438H32.4062V23.9062H26.0312V22.8438Z" fill="#6A7A99"/>
<path id="Vector_12" d="M22.8438 24.9688H32.4062V26.0312H22.8438V24.9688Z" fill="#6A7A99"/>
<path id="Vector_13" d="M22.8438 27.0938H23.9062V28.1562H22.8438V27.0938Z" fill="#6A7A99"/>
<path id="Vector_14" d="M24.9688 27.0938H32.4062V28.1562H24.9688V27.0938Z" fill="#6A7A99"/>
<path id="Vector_15" d="M22.8438 29.2188H32.4062V30.2812H22.8438V29.2188Z" fill="#6A7A99"/>
<path id="Vector_16" d="M2.65625 6.90625H10.0938V7.96875H2.65625V6.90625Z" fill="#6A7A99"/>
<path id="Vector_17" d="M2.65625 9.03125H10.0938V10.0938H2.65625V9.03125Z" fill="#6A7A99"/>
</g>
</g>
<defs>
<clipPath id="clip0_0_513">
<rect width="34" height="34" fill="white"/>
</clipPath>
</defs>
</svg>
