<svg width="34" height="34" viewBox="0 0 34 34" fill="none" xmlns="http://www.w3.org/2000/svg">
<g id="person 2" clip-path="url(#clip0_0_567)">
<path id="Vector" d="M29.8095 20.7347C27.3335 19.4221 23.9337 18.5268 20.2011 18.2005L20.2872 17.1669C21.0835 16.9059 21.6601 16.1556 21.6601 15.2733V9.96079C21.6601 8.17527 20.6482 6.62165 19.1677 5.84331C21.4897 3.8777 20.0918 6.64057e-05 17.0117 0C13.9316 0.000132811 12.5338 3.87823 14.8558 5.84337C13.3753 6.62171 12.3634 8.17528 12.3634 9.96086V15.2733C12.3634 16.1557 12.9401 16.906 13.7363 17.167L13.8224 18.2005C8.48283 18.6976 0.363603 20.7043 0.0117188 26.031C0.465934 32.1705 10.9793 34.0134 17.0117 33.9999C21.4666 33.9999 25.6652 33.2195 28.834 31.8025C35.1611 29.1074 35.8703 23.8771 29.8095 20.7347ZM14.3578 24.6252C14.4498 25.7295 15.3052 26.5623 16.3477 26.5623H17.6758C18.7183 26.5623 19.5737 25.7295 19.6657 24.6253L19.8369 22.5708C23.8836 23.0354 26.2837 24.3958 26.2837 25.4957C25.9007 27.8142 19.6772 28.6426 17.0118 28.5794C14.352 28.6448 8.11614 27.8105 7.73975 25.4957C7.73982 24.3958 10.1399 23.0354 14.1866 22.5708L14.3578 24.6252ZM15.0196 3.32029C15.0196 2.2218 15.9133 1.32811 17.0118 1.32811C19.651 1.42825 19.6503 5.21272 17.0118 5.31246C15.9133 5.31246 15.0196 4.41877 15.0196 3.32029ZM13.6915 15.2733V9.96086C13.8578 5.56374 20.1652 5.56181 20.3321 9.96093C20.3321 9.96086 20.3321 15.2734 20.3321 15.2734C20.3321 15.6395 20.0342 15.9374 19.668 15.9374C19.3226 15.9374 19.0349 16.2022 19.0063 16.5463L18.3422 24.515C18.3124 24.8724 18.074 25.2342 17.6759 25.2342H16.3477C15.9496 25.2342 15.7112 24.8724 15.6814 24.5149L15.0174 16.5462C14.9887 16.2021 14.7009 15.9374 14.3556 15.9374C13.9893 15.9374 13.6915 15.6395 13.6915 15.2733ZM28.2919 30.5901C22.4112 33.345 11.6121 33.3451 5.73164 30.59C2.94068 29.3421 1.33997 27.6804 1.33997 26.0312C1.70566 21.7217 9.42194 19.9139 13.9327 19.5241L14.0763 21.2467C12.0272 21.478 10.2451 21.9389 8.8988 22.5878C4.90741 24.5783 6.05517 27.4108 9.75165 28.7671C13.5784 30.2763 20.4454 30.2764 24.2721 28.7671C27.9724 27.4095 29.1132 24.577 25.1249 22.5877C23.7785 21.9389 21.9964 21.4781 19.9474 21.2467L20.091 19.5241C23.6475 19.8353 26.866 20.6775 29.1876 21.9082C34.2994 24.5787 33.565 28.2732 28.2919 30.5901Z" fill="#6A7A99"/>
</g>
<defs>
<clipPath id="clip0_0_567">
<rect width="34" height="34" fill="white"/>
</clipPath>
</defs>
</svg>
